# File created by Blade
# Date/Time:  Wed Apr 08 17:20:14 2015
#---------------------------------------------------------
:version 1.10
:name HOM
:units
  mass 1.0
  length 1.000000
  angle deg
:documentation
     Acclaim Skeleton File
:root
   axis xyz
   order TX TY TZ RX RY RZ
   position 0.000000 0.000000 0.000000
   orientation 0 0 0
:bonedata
   begin
      id 1
      name Spine_dum
      direction 0.000000 1.000000 0.000000
      length 5.893853
      axis 0.0 0.0 0.0 xyz
   end
   begin
      id 2
      name LeftUpLeg_dum
      direction 1.000000 0.000000 0.000000
      length 3.697939
      axis 0.0 0.0 0.0 xyz
   end
   begin
      id 3
      name RightUpLeg_dum
      direction -1.000000 0.000000 0.000000
      length 3.697939
      axis 0.0 0.0 0.0 xyz
   end
   begin
      id 4
      name Spine
      direction 0.000000 1.000000 0.000000
      length 0.000000
      axis 0.0 0.0 0.0 xyz
      dof rx ry rz
   end
   begin
      id 5
      name Spine_dum1
      direction 0.000000 1.000000 0.000000
      length 16.447146
      axis 0.0 0.0 0.0 xyz
   end
   begin
      id 6
      name Spine_dum2
      direction 0.000000 1.000000 0.000000
      length 10.900383
      axis 0.0 0.0 0.0 xyz
   end
   begin
      id 7
      name Spine_dum3
      direction 0.000000 1.000000 0.000000
      length 10.900383
      axis 0.0 0.0 0.0 xyz
   end
   begin
      id 8
      name Head
      direction 0.000000 1.000000 0.000000
      length 4.527550
      axis 0.0 0.0 0.0 xyz
      dof rx ry rz
   end
   begin
      id 9
      name LeftShoulder
      direction 1.000000 0.000000 0.000000
      length 8.219464
      axis 0.0 0.0 -90.0 xyz
      dof rx ry rz
   end
   begin
      id 10
      name LeftArm
      direction 1.000000 0.000000 0.000000
      length 11.094937
      axis 0.0 0.0 -90.0 xyz
      dof rx ry rz
   end
   begin
      id 11
      name LeftForeArm
      direction 1.000000 0.000000 0.000000
      length 9.103875
      axis 0.0 0.0 -90.0 xyz
      dof ry rz rx
   end
   begin
      id 12
      name LeftHand
      direction 0.000000 0.000000 0.000000
      length 0.000000
      axis 0.0 0.0 -90.0 xyz
      dof rx ry rz
   end
   begin
      id 13
      name LeftHand_dum1
      direction 0.000000 0.000000 0.000000
      length 0.000000
      axis 0.0 0.0 -90.0 xyz
   end
   begin
      id 14
      name LeftHand_dum2
      direction 1.000000 0.000000 0.000000
      length 3.937000
      axis 0.0 0.0 -90.0 xyz
   end
   begin
      id 15
      name LeftHandThumb1
      direction 0.000000 0.000000 1.000000
      length 3.937000
      axis 0.0 0.0 -90.0 xyz
      dof rx rz ry
   end
   begin
      id 16
      name RightShoulder
      direction -1.000000 0.000000 0.000000
      length 8.219464
      axis 0.0 0.0 90.0 xyz
      dof rx ry rz
   end
   begin
      id 17
      name RightArm
      direction -1.000000 0.000000 0.000000
      length 11.094937
      axis 0.0 0.0 90.0 xyz
      dof rx ry rz
   end
   begin
      id 18
      name RightForeArm
      direction -1.000000 0.000000 0.000000
      length 9.103875
      axis 0.0 0.0 90.0 xyz
      dof ry rz rx
   end
   begin
      id 19
      name RightHand
      direction 0.000000 0.000000 0.000000
      length 0.000000
      axis 0.0 0.0 90.0 xyz
      dof rx ry rz
   end
   begin
      id 20
      name RightHand_dum1
      direction 0.000000 0.000000 0.000000
      length 0.000000
      axis 0.0 0.0 90.0 xyz
   end
   begin
      id 21
      name RightHand_dum2
      direction -1.000000 0.000000 0.000000
      length 3.937000
      axis 0.0 0.0 90.0 xyz
   end
   begin
      id 22
      name RightHandThumb1
      direction 0.000000 0.000000 1.000000
      length 3.937000
      axis 0.0 0.0 90.0 xyz
      dof rx rz ry
   end
   begin
      id 23
      name LeftUpLeg
      direction 0.000000 -1.000000 0.000000
      length 16.181467
      axis 0.0 0.0 0.0 xyz
      dof rx ry rz
   end
   begin
      id 24
      name LeftLeg
      direction 0.000000 -1.000000 0.000000
      length 16.501392
      axis 0.0 0.0 0.0 xyz
      dof rx ry rz
   end
   begin
      id 25
      name LeftFoot
      direction 0.000000 -0.258819 0.965926
      length 6.408245
      axis 15.0 0.0 0.0 xyz
      dof rx ry rz
   end
   begin
      id 26
      name LeftToeBase
      direction 0.000000 0.000000 1.000000
      length 2.952750
      axis 0.0 0.0 0.0 xyz
      dof rx ry rz
   end
   begin
      id 27
      name RightUpLeg
      direction 0.000000 -1.000000 0.000000
      length 16.181467
      axis 0.0 0.0 0.0 xyz
      dof rx ry rz
   end
   begin
      id 28
      name RightLeg
      direction 0.000000 -1.000000 0.000000
      length 16.501392
      axis 0.0 0.0 0.0 xyz
      dof rx ry rz
   end
   begin
      id 29
      name RightFoot
      direction 0.000000 -0.258819 0.965926
      length 6.408245
      axis 15.0 0.0 0.0 xyz
      dof rx ry rz
   end
   begin
      id 30
      name RightToeBase
      direction 0.000000 0.000000 1.000000
      length 2.952750
      axis 0.0 0.0 0.0 xyz
      dof rx ry rz
   end
:hierarchy
   begin
      root Spine_dum LeftUpLeg_dum RightUpLeg_dum
      Spine_dum Spine
      LeftUpLeg_dum LeftUpLeg
      RightUpLeg_dum RightUpLeg
      Spine Spine_dum1 Spine_dum2 Spine_dum3
      Spine_dum1 Head
      Spine_dum2 LeftShoulder
      Spine_dum3 RightShoulder
      LeftShoulder LeftArm
      LeftArm LeftForeArm
      LeftForeArm LeftHand
      LeftHand LeftHand_dum1 LeftHand_dum2
      LeftHand_dum1 LeftHandThumb1
      RightShoulder RightArm
      RightArm RightForeArm
      RightForeArm RightHand
      RightHand RightHand_dum1 RightHand_dum2
      RightHand_dum1 RightHandThumb1
      LeftUpLeg LeftLeg
      LeftLeg LeftFoot
      LeftFoot LeftToeBase
      RightUpLeg RightLeg
      RightLeg RightFoot
      RightFoot RightToeBase
   end

# File created by Blade
# Date/Time:  Wed Apr 08 17:19:54 2015
# Frame Rate: 120.000 fps
#------------------------------------------------------
:FULLY-SPECIFIED
:DEGREES
638
root 5.628846 35.717007 1.458798 -8.405125 -26.856127 2.060155
Spine 8.871971 -0.370953 3.601438
Head 25.630444 27.833921 11.032475
LeftShoulder -6.610650 16.792300 15.938676
LeftArm 17.724529 21.310073 -76.061203
LeftForeArm 19.252886 -0.000000 21.163679
LeftHand -10.826205 -0.000000 -15.656829
LeftHandThumb1 -26.253704 0.000000 33.147579
RightShoulder -31.026381 -49.588400 25.912061
RightArm 62.423100 -24.665842 46.705780
RightForeArm 24.902549 -0.000000 2.609856
RightHand -8.578667 0.000000 16.440488
RightHandThumb1 -24.326973 -0.000000 -32.862282
LeftUpLeg 11.653292 -0.016064 -8.359169
LeftLeg 9.138763 -0.000000 -0.000000
LeftFoot -15.509658 -4.777057 -2.591931
LeftToeBase 14.896777 -0.000000 -0.000000
RightUpLeg -21.897367 7.511603 6.733131
RightLeg 152.725272 -0.000000 -0.000000
RightFoot 36.721030 6.499605 15.389936
RightToeBase 9.029552 -0.000000 -0.000000
639
root 5.633916 35.707604 1.462780 -8.455773 -26.933225 2.158551
Spine 8.847198 -0.425518 3.524591
Head 25.747053 27.773464 11.095725
LeftShoulder -6.645930 16.851040 15.874507
LeftArm 17.814348 21.231251 -75.898243
LeftForeArm 19.168501 -0.000000 21.189381
LeftHand -10.851872 -0.000000 -15.547850
LeftHandThumb1 -26.253704 0.000000 33.147579
RightShoulder -31.030453 -49.575402 25.905214
RightArm 62.454465 -24.641115 46.731218
RightForeArm 24.764648 -0.000000 2.608276
RightHand -8.564041 -0.000000 16.270939
RightHandThumb1 -24.326973 -0.000000 -32.862282
LeftUpLeg 11.689776 0.046295 -8.451172
LeftLeg 9.081650 -0.000000 -0.000000
LeftFoot -15.513247 -4.768606 -2.596694
LeftToeBase 14.908370 -0.000000 -0.000000
RightUpLeg -21.994981 7.632446 6.602688
RightLeg 152.723311 -0.000000 -0.000000
RightFoot 36.632787 6.500809 15.361803
RightToeBase 9.242482 -0.000000 -0.000000
640
root 5.639290 35.698691 1.469652 -8.495658 -27.035265 2.257507
Spine 8.800339 -0.446669 3.468257
Head 25.875247 27.729918 11.105903
LeftShoulder -6.693998 16.882008 15.811529
LeftArm 17.871510 21.140037 -75.776288
LeftForeArm 19.140261 -0.000000 21.198422
LeftHand -10.852897 -0.000000 -15.544688
LeftHandThumb1 -26.253704 0.000000 33.147579
RightShoulder -31.072003 -49.576659 25.897599
RightArm 62.468468 -24.607081 46.802032
RightForeArm 24.572210 -0.000000 2.614595
RightHand -8.483245 -0.000000 16.098145
RightHandThumb1 -24.326973 -0.000000 -32.862282
LeftUpLeg 11.731849 0.136868 -8.541806
LeftLeg 8.996457 -0.000000 -0.000000
LeftFoot -15.503525 -4.745834 -2.563183
LeftToeBase 14.932128 -0.000000 -0.000000
RightUpLeg -22.100367 7.774412 6.447898
RightLeg 152.706816 -0.000000 -0.000000
RightFoot 36.624719 6.502729 15.310416
RightToeBase 9.032184 -0.000000 -0.000000
641
root 5.643651 35.692021 1.478259 -8.529210 -27.152391 2.337630
Spine 8.737250 -0.436000 3.441443
Head 26.030020 27.685549 11.105919
LeftShoulder -6.718401 16.897455 15.779025
LeftArm 17.897269 21.050502 -75.716678
LeftForeArm 19.113499 0.000000 21.187383
LeftHand -10.897835 -0.000000 -15.428283
LeftHandThumb1 -26.253704 0.000000 33.147579
RightShoulder -31.093918 -49.624193 25.881257
RightArm 62.491230 -24.571564 46.858067
RightForeArm 24.506978 -0.000000 2.594565
RightHand -8.381586 -0.000000 15.987509
RightHandThumb1 -24.326973 -0.000000 -32.862282
LeftUpLeg 11.777529 0.239141 -8.614603
LeftLeg 8.913235 -0.000000 -0.000000
LeftFoot -15.493109 -4.716539 -2.520357
LeftToeBase 14.869232 -0.000000 -0.000000
RightUpLeg -22.190048 7.888542 6.323757
RightLeg 152.706488 -0.000000 -0.000000
RightFoot 36.533233 6.480192 15.214265
RightToeBase 9.026452 -0.000000 -0.000000
642
root 5.646460 35.687344 1.488721 -8.558596 -27.275644 2.391007
Spine 8.678091 -0.409289 3.457354
Head 26.181869 27.640625 11.045021
LeftShoulder -6.747479 16.901131 15.740641
LeftArm 17.924379 20.989128 -75.668851
LeftForeArm 19.030909 0.000000 21.178371
LeftHand -11.012516 0.000000 -15.283593
LeftHandThumb1 -26.253704 0.000000 33.147579
RightShoulder -31.129192 -49.651838 25.866298
RightArm 62.504720 -24.541309 46.899854
RightForeArm 24.451701 -0.000000 2.548010
RightHand -8.293185 -0.000000 15.928564
RightHandThumb1 -24.326973 -0.000000 -32.862282
LeftUpLeg 11.824467 0.327406 -8.665440
LeftLeg 8.850714 -0.000000 -0.000000
LeftFoot -15.480352 -4.693563 -2.517574
LeftToeBase 14.861953 -0.000000 -0.000000
RightUpLeg -22.259865 8.002979 6.228632
RightLeg 152.703880 -0.000000 -0.000000
RightFoot 36.465642 6.372061 15.161597
RightToeBase 9.094301 -0.000000 -0.000000
643
root 5.647325 35.684685 1.499263 -8.559628 -27.396924 2.404281
Spine 8.599880 -0.369411 3.523206
Head 26.336343 27.615716 10.993864
LeftShoulder -6.756833 16.894898 15.717576
LeftArm 17.941575 20.904300 -75.675409
LeftForeArm 18.975158 0.000000 21.124315
LeftHand -11.055333 -0.000000 -15.243587
LeftHandThumb1 -26.253704 0.000000 33.147579
RightShoulder -31.145401 -49.647646 25.843595
RightArm 62.441930 -24.489209 47.006178
RightForeArm 24.353780 -0.000000 2.497015
RightHand -8.220681 -0.000000 15.961004
RightHandThumb1 -24.326973 -0.000000 -32.862282
LeftUpLeg 11.849397 0.397272 -8.683508
LeftLeg 8.815369 -0.000000 -0.000000
LeftFoot -15.476491 -4.644112 -2.486153
LeftToeBase 14.826611 -0.000000 -0.000000
RightUpLeg -22.317602 8.128984 6.170944
RightLeg 152.699808 -0.000000 -0.000000
RightFoot 36.442938 6.361118 15.053914
RightToeBase 8.863393 -0.000000 -0.000000
